<mxfile host="app.diagrams.net" modified="2023-04-18T10:27:14.051Z" agent="Mozilla/5.0 (Macintosh; Intel Mac OS X 10_15_7) AppleWebKit/537.36 (KHTML, like Gecko) Chrome/111.0.0.0 Safari/537.36" version="21.1.8" etag="qTYJaBrW2yBHpEWhOsbz" type="github">
  <diagram name="Page-1" id="mjClUCPzA8p3NUbUHchj">
    <mxGraphModel>
      <root>
        <mxCell id="0" />
        <mxCell id="1" parent="0" />
      </root>
    </mxGraphModel>
  </diagram>
</mxfile>
